<svg id="Layer_1" data-name="Layer 1" xmlns="http://www.w3.org/2000/svg" xmlns:xlink="http://www.w3.org/1999/xlink" viewBox="0 0 1393.62 190.84"><defs><style>.cls-1{fill:url(#linear-gradient);}.cls-2{fill:url(#linear-gradient-2);}.cls-3{fill:url(#linear-gradient-3);}.cls-4{fill:url(#linear-gradient-4);}.cls-5{fill:url(#linear-gradient-6);}.cls-6{fill:url(#linear-gradient-7);}.cls-7{fill:url(#linear-gradient-8);}</style><linearGradient id="linear-gradient" x1="121.07" y1="199.49" x2="121" y2="199.36" gradientUnits="userSpaceOnUse"><stop offset="0" stop-color="#08773e"/><stop offset="0.18" stop-color="#15aa59"/><stop offset="0.42" stop-color="#0d7039"/><stop offset="0.64" stop-color="#15aa59"/><stop offset="0.7" stop-color="#15aa59"/><stop offset="0.86" stop-color="#15aa59"/><stop offset="1" stop-color="#0d7039"/></linearGradient><linearGradient id="linear-gradient-2" x1="181.38" y1="358.75" x2="39.36" y2="216.73" xlink:href="#linear-gradient"/><linearGradient id="linear-gradient-3" x1="168.42" y1="203.01" x2="72.89" y2="368.46" xlink:href="#linear-gradient"/><linearGradient id="linear-gradient-4" x1="107.56" y1="194.81" x2="104.38" y2="191.63" xlink:href="#linear-gradient"/><linearGradient id="linear-gradient-6" x1="125.41" y1="214.82" x2="85.87" y2="175.27" xlink:href="#linear-gradient"/><linearGradient id="linear-gradient-7" x1="110.5" y1="335.9" x2="110.5" y2="188.68" gradientUnits="userSpaceOnUse"><stop offset="0" stop-color="#c59535"/><stop offset="0.18" stop-color="#dcba65"/><stop offset="0.42" stop-color="#c59535"/><stop offset="0.64" stop-color="#ebcf7f"/><stop offset="0.79" stop-color="#dcba65"/><stop offset="1" stop-color="#c59535"/></linearGradient><linearGradient id="linear-gradient-8" x1="290.21" y1="266.35" x2="1381.07" y2="266.35" xlink:href="#linear-gradient-7"/></defs><path class="cls-1" d="M120.89,199.42a.49.49,0,0,1,.15.09c0-.07,0-.13.07-.2Z" transform="translate(12.55 -170.93)"/><path class="cls-2" d="M107.61,188.68a8.41,8.41,0,0,0-3.93,6.28,10.16,10.16,0,0,0,0,2.13c1.51-.92,2.86-1.71,4-2.39A10.58,10.58,0,0,1,107.61,188.68Zm0,0a8.41,8.41,0,0,0-3.93,6.28,10.16,10.16,0,0,0,0,2.13c1.51-.92,2.86-1.71,4-2.39A10.58,10.58,0,0,1,107.61,188.68Zm0,0a8.41,8.41,0,0,0-3.93,6.28,10.16,10.16,0,0,0,0,2.13c1.51-.92,2.86-1.71,4-2.39A10.58,10.58,0,0,1,107.61,188.68Zm-.62-4a4.49,4.49,0,0,1,.62,0,4.06,4.06,0,0,1,2.33.73l.2.16c.07-1.22.22-2.12.23-2.24A22.09,22.09,0,0,0,107,184.67Zm18.24,9.41c-.57-.3-1.23.56-2.7,1.35a.21.21,0,0,1-.1,0,3.94,3.94,0,0,1,1.31.76,4,4,0,0,1,1.24,4.25C125.27,199.54,126.43,194.72,125.23,194.08Zm-17.62-5.4a8.41,8.41,0,0,0-3.93,6.28,10.16,10.16,0,0,0,0,2.13c1.51-.92,2.86-1.71,4-2.39A10.58,10.58,0,0,1,107.61,188.68Zm-.62-4a4.49,4.49,0,0,1,.62,0,4.06,4.06,0,0,1,2.33.73l.2.16c.07-1.22.22-2.12.23-2.24A22.09,22.09,0,0,0,107,184.67Zm18.24,9.41c-.57-.3-1.23.56-2.7,1.35a.21.21,0,0,1-.1,0,3.94,3.94,0,0,1,1.31.76,4,4,0,0,1,1.24,4.25C125.27,199.54,126.43,194.72,125.23,194.08ZM215,295.38H185.33c4.08-3.91,21.32-21.25,18.91-43.22-2-17.8-16.05-29.15-28.37-39.17-4.14-3.38-7.63-5.69-30.38-18.25v12.85h-11.8c6.27,4.14,13,8.87,19.4,13.81,7.85,6.1,15.09,12.51,20.08,18.6,3.84,4.68,6,8.75,6.76,13.51.93,6-.88,10.68-7.72,26.12-.12.3-.25.59-.39.89l-2.89,6.5c-.89,2-1.74,3.87-2.51,5.62-1.3,2.89-2.43,5.4-3.38,7.46-1.23.41-2.5.84-3.83,1.34q-3.12,1.14-6.57,2.65c-1.09.47-2.21,1-3.35,1.54a3.13,3.13,0,0,1-.32.15l-.38.19c-.16.08-.31.14-.47.23-1.32.66-2.67,1.35-4.05,2.1-2.19,1.19-4.42,2.5-6.69,4q-3.88,2.49-7.29,5.11c-.91.68-1.8,1.37-2.65,2.06-1.08.87-2.11,1.74-3.1,2.61-.33.28-.64.55-1,.84l-.49.44c-1,.85-1.87,1.7-2.75,2.55-.45.42-.88.85-1.3,1.26a111.5,111.5,0,0,0-7.94,8.77l-.54.67c-.18-.22-.37-.44-.54-.67a110.93,110.93,0,0,0-7.62-8.45c-.42-.43-.85-.85-1.29-1.28q-1.32-1.28-2.73-2.55l-.5-.46c-.31-.27-.62-.55-1-.82-1-.88-2-1.76-3.1-2.62-.86-.71-1.73-1.4-2.64-2.08q-3.54-2.76-7.64-5.38c-2.15-1.38-4.28-2.63-6.36-3.78-1.37-.76-2.72-1.45-4.06-2.11l-.51-.26-.39-.18-.27-.14c-1.15-.55-2.28-1.08-3.39-1.58-2.3-1-4.5-1.9-6.58-2.67-1.43-.53-2.79-1-4.1-1.44-.87-1.9-1.9-4.18-3.07-6.79-.84-1.86-1.74-3.89-2.73-6.06l-3-6.73c-.1-.2-.18-.4-.27-.61-6.95-15.66-8.77-20.35-7.84-26.4.73-4.76,2.92-8.83,6.76-13.51,5.1-6.21,12.54-12.77,20.58-19,6.2-4.8,12.78-9.39,18.88-13.44H65.8V200c-14.43,8.08-17.45,10.16-20.94,13-12.31,10-26.4,21.37-28.36,39.17-2.42,22,14.83,39.31,18.91,43.22H5.7Q.28,304.83-5.11,314.29a156.07,156.07,0,0,1,50,2.7l1.06.23c2.73.6,5.64,1.27,8.71,2.08,2.31.6,4.7,1.31,7.19,2.13l.24.08c3.1,1,6.36,2.27,9.72,3.77A99.92,99.92,0,0,1,84,331.84q3.16,2,6,4.06a106.85,106.85,0,0,1,20.34,19.4,106.85,106.85,0,0,1,20.34-19.4q2.83-2.07,6-4.06a99.83,99.83,0,0,1,12.6-6.71c3.19-1.42,6.28-2.58,9.24-3.56a5.9,5.9,0,0,1,.67-.23c2.5-.83,4.9-1.52,7.21-2.12,3.08-.81,6-1.46,8.73-2.07l.71-.16a156.16,156.16,0,0,1,50-2.7Q220.44,304.83,215,295.38ZM125,200.48c.29-.94,1.45-5.76.25-6.4-.57-.3-1.23.56-2.7,1.35a.21.21,0,0,1-.1,0,3.94,3.94,0,0,1,1.31.76A4,4,0,0,1,125,200.48Zm-15-15.12.2.16c.07-1.22.22-2.12.23-2.24a22.09,22.09,0,0,0-3.38,1.39,4.49,4.49,0,0,1,.62,0A4.06,4.06,0,0,1,109.94,185.36Zm-2.27,9.34a10.58,10.58,0,0,1-.06-6,8.41,8.41,0,0,0-3.93,6.28,10.16,10.16,0,0,0,0,2.13C105.17,196.17,106.52,195.38,107.67,194.7Zm17.56-.62c-.57-.3-1.23.56-2.7,1.35a.21.21,0,0,1-.1,0,3.94,3.94,0,0,1,1.31.76,4,4,0,0,1,1.24,4.25C125.27,199.54,126.43,194.72,125.23,194.08ZM107,184.67a4.49,4.49,0,0,1,.62,0,4.06,4.06,0,0,1,2.33.73l.2.16c.07-1.22.22-2.12.23-2.24A22.09,22.09,0,0,0,107,184.67Zm.62,4a8.41,8.41,0,0,0-3.93,6.28,10.16,10.16,0,0,0,0,2.13c1.51-.92,2.86-1.71,4-2.39A10.58,10.58,0,0,1,107.61,188.68Zm17.62,5.4c-.57-.3-1.23.56-2.7,1.35a.21.21,0,0,1-.1,0,3.94,3.94,0,0,1,1.31.76,4,4,0,0,1,1.24,4.25C125.27,199.54,126.43,194.72,125.23,194.08ZM107,184.67a4.49,4.49,0,0,1,.62,0,4.06,4.06,0,0,1,2.33.73l.2.16c.07-1.22.22-2.12.23-2.24A22.09,22.09,0,0,0,107,184.67Zm.62,4a8.41,8.41,0,0,0-3.93,6.28,10.16,10.16,0,0,0,0,2.13c1.51-.92,2.86-1.71,4-2.39A10.58,10.58,0,0,1,107.61,188.68Zm0,0a8.41,8.41,0,0,0-3.93,6.28,10.16,10.16,0,0,0,0,2.13c1.51-.92,2.86-1.71,4-2.39A10.58,10.58,0,0,1,107.61,188.68Zm0,0a8.41,8.41,0,0,0-3.93,6.28,10.16,10.16,0,0,0,0,2.13c1.51-.92,2.86-1.71,4-2.39A10.58,10.58,0,0,1,107.61,188.68Z" transform="translate(12.55 -170.93)"/><path class="cls-3" d="M233.29,319.13l-7.86-.82a157.16,157.16,0,0,0-16.34-.85,150.76,150.76,0,0,0-32.34,3.48l-.89.21c-2.67.59-5.46,1.21-8.4,2-2.5.66-4.78,1.34-7,2.06-.23.06-.32.1-.42.13l-.19.07c-3.21,1.08-6.12,2.19-8.92,3.44a95.15,95.15,0,0,0-12.09,6.44c-2,1.27-4,2.58-5.77,3.89a103,103,0,0,0-19.57,18.68l-3.16,3.93-3.16-3.93a102.52,102.52,0,0,0-19.56-18.66c-1.81-1.33-3.75-2.64-5.78-3.91a96.69,96.69,0,0,0-21.09-9.92l1-3.92.24.08c3.1,1,6.36,2.27,9.72,3.77A99.92,99.92,0,0,1,84,331.84q3.16,2,6,4.06a106.85,106.85,0,0,1,20.34,19.4,106.85,106.85,0,0,1,20.34-19.4q2.83-2.07,6-4.06a99.83,99.83,0,0,1,12.6-6.71c3.19-1.42,6.28-2.58,9.24-3.56a5.9,5.9,0,0,1,.67-.23c2.5-.83,4.9-1.52,7.21-2.12,3.08-.81,6-1.46,8.73-2.07l.71-.16a156.16,156.16,0,0,1,50-2.7q-5.41-9.46-10.81-18.91H185.33c4.08-3.91,21.32-21.25,18.91-43.22-2-17.8-16.05-29.15-28.37-39.17-4.14-3.38-7.63-5.69-30.38-18.25l-6.08-3.36c-6.84-3.75-13.06-7.16-18.53-10.13l-3-1.65-7.48-4.06-1.07.58-5.64,3.06c-6.31,3.43-13.86,7.54-22.33,12.2C75,194.85,70,197.67,65.8,200c-14.43,8.08-17.45,10.16-20.94,13-12.31,10-26.4,21.37-28.36,39.17-2.42,22,14.83,39.31,18.91,43.22H5.7Q.28,304.83-5.11,314.29a156.07,156.07,0,0,1,50,2.7l1.06.23c2.73.6,5.64,1.27,8.71,2.08,2.31.6,4.7,1.31,7.19,2.13l-1.29,3.85c-2.29-.77-4.56-1.45-6.93-2.07-3-.79-5.89-1.44-8.56-2L44,320.93a150.91,150.91,0,0,0-32.31-3.47,157.16,157.16,0,0,0-16.34.85l-7.86.82,15.9-27.8H26.17c-7.2-8.81-15.53-22.92-13.69-39.62,2.12-19.33,16.7-31.18,29.58-41.65l.25-.22c3.92-3.2,7.47-5.58,23.49-14.5,3.78-2.11,8.24-4.58,13.57-7.51,8.47-4.66,16-8.77,22.33-12.2l8.67-4.7,4.79,2.59,4.64,2.53,3,1.65c5.47,3,11.7,6.37,18.53,10.13l4.14,2.28c24.25,13.37,28.34,16,32.95,19.75l.24.2c12.87,10.47,27.46,22.32,29.58,41.65,1.84,16.7-6.49,30.81-13.69,39.62h22.82Z" transform="translate(12.55 -170.93)"/><path class="cls-4" d="M107.61,188.68a8.41,8.41,0,0,0-3.93,6.28,10.16,10.16,0,0,0,0,2.13c1.51-.92,2.86-1.71,4-2.39A10.58,10.58,0,0,1,107.61,188.68Z" transform="translate(12.55 -170.93)"/><path class="cls-2" d="M215,295.38H185.33c4.08-3.91,21.32-21.25,18.91-43.22-2-17.8-16.05-29.15-28.37-39.17-4.14-3.38-7.63-5.69-30.38-18.25l-6.08-3.36c-6.84-3.75-13.06-7.16-18.53-10.13l-3-1.65-7.48-4.06-1.07.58-5.64,3.06c-6.31,3.43-13.86,7.54-22.33,12.2C75,194.85,70,197.67,65.8,200c-14.43,8.08-17.45,10.16-20.94,13-12.31,10-26.4,21.37-28.36,39.17-2.42,22,14.83,39.31,18.91,43.22H5.7Q.28,304.83-5.11,314.29a156.07,156.07,0,0,1,50,2.7l1.06.23c2.73.6,5.64,1.27,8.71,2.08,2.31.6,4.7,1.31,7.19,2.13l.24.08c3.1,1,6.36,2.27,9.72,3.77A99.92,99.92,0,0,1,84,331.84q3.16,2,6,4.06a106.85,106.85,0,0,1,20.34,19.4,106.85,106.85,0,0,1,20.34-19.4q2.83-2.07,6-4.06a99.83,99.83,0,0,1,12.6-6.71c3.19-1.42,6.28-2.58,9.24-3.56a5.9,5.9,0,0,1,.67-.23c2.5-.83,4.9-1.52,7.21-2.12,3.08-.81,6-1.46,8.73-2.07l.71-.16a156.16,156.16,0,0,1,50-2.7Q220.44,304.83,215,295.38Zm-42.83-15.75c-.12.3-.25.59-.39.89l-2.89,6.5c-.89,2-1.74,3.87-2.51,5.62-1.3,2.89-2.43,5.4-3.38,7.46-1.23.41-2.5.84-3.83,1.34q-3.12,1.14-6.57,2.65c-1.09.47-2.21,1-3.35,1.54a3.13,3.13,0,0,1-.32.15l-.38.19c-.16.08-.31.14-.47.23-1.32.66-2.67,1.35-4.05,2.1-2.19,1.19-4.42,2.5-6.69,4q-3.88,2.49-7.29,5.11c-.91.68-1.8,1.37-2.65,2.06-1.08.87-2.11,1.74-3.1,2.61-.33.28-.64.55-1,.84l-.49.44c-1,.85-1.87,1.7-2.75,2.55-.45.42-.88.85-1.3,1.26a111.5,111.5,0,0,0-7.94,8.77l-.54.67c-.18-.22-.37-.44-.54-.67a110.93,110.93,0,0,0-7.62-8.45c-.42-.43-.85-.85-1.29-1.28q-1.32-1.28-2.73-2.55l-.5-.46c-.31-.27-.62-.55-1-.82-1-.88-2-1.76-3.1-2.62-.86-.71-1.73-1.4-2.64-2.08q-3.54-2.76-7.64-5.38c-2.15-1.38-4.28-2.63-6.36-3.78-1.37-.76-2.72-1.45-4.06-2.11l-.51-.26-.39-.18-.27-.14c-1.15-.55-2.28-1.08-3.39-1.58-2.3-1-4.5-1.9-6.58-2.67-1.43-.53-2.79-1-4.1-1.44-.87-1.9-1.9-4.18-3.07-6.79-.84-1.86-1.74-3.89-2.73-6.06l-3-6.73c-.1-.2-.18-.4-.27-.61-6.95-15.66-8.77-20.35-7.84-26.4.73-4.76,2.92-8.83,6.76-13.51,5.1-6.21,12.54-12.77,20.58-19,6.2-4.8,12.78-9.39,18.88-13.44,4.69-3.11,9.12-5.9,12.9-8.23a14.76,14.76,0,0,1-.31-1.9,14.49,14.49,0,0,1,0-2.93s0-.14,0-.38c0-.08,0-.19.06-.3s0-.16,0-.25,0-.07,0-.1c0-.19.09-.4.14-.63a9.07,9.07,0,0,1,.47-1.56c0-.12.1-.25.15-.39s.11-.27.16-.39,0-.1.07-.15a10.11,10.11,0,0,1,.55-1,13.07,13.07,0,0,1,4-4.06,3.83,3.83,0,0,1,1.62-.64s0,0,0,0a4.49,4.49,0,0,1,.62,0,4.06,4.06,0,0,1,2.33.73l.2.16a16.74,16.74,0,0,0,.23,4.51c.18.73.51,1.65,1.13,3.36l.09.21c0,.09.08.2.14.32a4.6,4.6,0,0,0,.71,1,5.16,5.16,0,0,0,.87.78,4.43,4.43,0,0,0,2.69,1h.45a11.16,11.16,0,0,0,6-1.19,3.94,3.94,0,0,1,1.31.76,4,4,0,0,1,1.24,4.25c0,.06,0,.11,0,.17a.85.85,0,0,0,0,.09s0,.11-.05.16c-.1.27-.2.53-.31.79,2.85,1.78,5.94,3.76,9.15,5.9,6.27,4.14,13,8.87,19.4,13.81,7.85,6.1,15.09,12.51,20.08,18.6,3.84,4.68,6,8.75,6.76,13.51C180.86,259.53,179.05,264.19,172.21,279.63Z" transform="translate(12.55 -170.93)"/><path class="cls-5" d="M145.49,190.11v4.63l-6.08-3.36c-6.84-3.75-13.06-7.16-18.53-10.13l-3-1.65-7.48-4.06-1.07.58-5.64,3.06c-6.31,3.43-13.86,7.54-22.33,12.2C75,194.85,70,197.67,65.8,200v-4.64c3.78-2.11,8.24-4.58,13.57-7.51,8.47-4.66,16-8.77,22.33-12.2l8.67-4.7,4.79,2.59,4.64,2.53,3,1.65c5.47,3,11.7,6.37,18.53,10.13Z" transform="translate(12.55 -170.93)"/><path class="cls-6" d="M166,289.79c-.69-.87-1.39-1.72-2.07-2.57-1.17-1.45-2.33-2.9-3.47-4.38a2,2,0,0,0-1.78-.86c-2.17,0-4.35,0-6.54,0h-1.31V267.07c.58,0,1.08,0,1.58,0a7.66,7.66,0,0,0,1.73-.22,4.38,4.38,0,0,0,3-4.84,4.47,4.47,0,0,0-4.17-3.9c-.55,0-1.13,0-1.69-.07-.09-.46-.17-.8-.23-1.15-.55-3.7-1.06-7.4-1.69-11.07a71.85,71.85,0,0,0-2-8.94c-.38-1.26-.8-2.5-1.27-3.72a27.61,27.61,0,0,0-7.41-11.06,45.52,45.52,0,0,0-7.46-5.42c-3.38-1.93-6.82-3.76-10.24-5.64-1.94-1.07-3.87-2.18-5.71-3.43-.65-.43-1.27-.89-1.89-1.37-.31-.25-.62-.52-.93-.79,1.27-.31,2.48-.54,3.64-.91a7.41,7.41,0,0,0,3-2c.14-.15.27-.28.39-.43a7.48,7.48,0,0,0,1.57-2.61c0-.07,0-.13.07-.2l-.22.11a11.42,11.42,0,0,1-4,1.27,8.39,8.39,0,0,1-6-1.75,9.78,9.78,0,0,1-1.42-1.27,8.26,8.26,0,0,1-1.79-3,10.58,10.58,0,0,1-.06-6,8.41,8.41,0,0,0-3.93,6.28,10.16,10.16,0,0,0,0,2.13,8.71,8.71,0,0,0,.92,3.23,10.37,10.37,0,0,0,4.86,4.4,7.49,7.49,0,0,1-.93.84l-1.65,1.23-1.08.78s0,0,0,0c-.19.13-.38.27-.57.39-.35.24-.7.46-1.06.67-3.19,1.88-6.46,3.62-9.7,5.41a76.53,76.53,0,0,0-9.5,5.93,28,28,0,0,0-10,13.49c-.36,1-.69,2-1,3.05a38.05,38.05,0,0,0-1,3.77c-.92,4.5-1.6,9-2.37,13.57-.23,1.37-.42,2.76-.64,4.23-.54,0-1,0-1.47,0a4.68,4.68,0,0,0-3,1.16,4.46,4.46,0,0,0-1.24,4.8,4.39,4.39,0,0,0,4,2.95c.72,0,1.46.06,2.22.09V282H69.11c-2.18,0-4.36.05-6.54,0a2.26,2.26,0,0,0-2,1c-1.15,1.5-2.35,3-3.53,4.44-.13.16-.27.33-.39.5a9.17,9.17,0,0,0-1.81,2.42,8.6,8.6,0,0,0-.16,2.93c1.17,2.61,2.2,4.89,3.07,6.79,1.31.44,2.67.91,4.1,1.44,2.08.77,4.28,1.66,6.58,2.67v-6.15a4.25,4.25,0,0,1,1.12-3,9.53,9.53,0,0,1,3.3-2.38c.71.5,1.51,1,2.24,1.57a5.09,5.09,0,0,1,2,4.25c0,3.33,0,6.64,0,10,2.08,1.15,4.21,2.4,6.36,3.78q4.1,2.61,7.64,5.38c.91.68,1.78,1.37,2.64,2.08,0-7,0-14,0-21.07A5.36,5.36,0,0,1,96,293.91c.59-.44,1.24-.8,1.82-1.18a9.92,9.92,0,0,1,3.35,2.49,4.17,4.17,0,0,1,1,2.78q0,14.56,0,29.1a2,2,0,0,1,0,.35,110.93,110.93,0,0,1,7.62,8.45h1.08a111.5,111.5,0,0,1,7.94-8.77v-.36c0-9.4,0-18.81,0-28.18a5.23,5.23,0,0,1,2.3-4.58c2.24-1.59,1.81-1.58,4,0a5.28,5.28,0,0,1,2.35,4.68c0,6.91,0,13.87,0,20.78.85-.69,1.74-1.38,2.65-2.06q3.41-2.62,7.29-5.11c2.27-1.46,4.5-2.77,6.69-4V298.09a4,4,0,0,1,1.28-3.14c.77-.71,1.65-1.3,2.47-1.94a.87.87,0,0,1,1.08,0,31.31,31.31,0,0,1,2.49,1.94,4,4,0,0,1,1.25,3.14v6q3.45-1.51,6.57-2.65c1.33-.5,2.6-.93,3.83-1.34,1-2.06,2.08-4.57,3.38-7.46v-1.48A2,2,0,0,0,166,289.79ZM85.38,275.94a2.58,2.58,0,0,1-.1.49H79.55c0-.46-.07-.88-.07-1.29,0-2.18.11-4.37,0-6.53-.16-2.37,1-3.7,3.12-4.72.65.53,1.36,1.06,2,1.65a2.55,2.55,0,0,1,.79,1.89Zm14,.49H93.6c0-.46-.07-.87-.07-1.29,0-2.17.11-4.36,0-6.52-.15-2.35,1-3.71,3.12-4.7a15.33,15.33,0,0,1,1.92,1.55,3.12,3.12,0,0,1,.85,1.73C99.47,270.22,99.42,273.25,99.42,276.43Zm14,0h-5.81c0-.48-.06-.9-.06-1.31,0-2.26.09-4.52,0-6.78a4,4,0,0,1,2.29-4l.66-.37a5.17,5.17,0,0,1,2.12,1.57,3.54,3.54,0,0,1,.78,1.75C113.5,270.28,113.46,273.28,113.46,276.41Zm14,0c-2,.08-3.81,0-5.8,0,0-.54-.07-1-.07-1.37,0-2.25.08-4.52,0-6.78a4,4,0,0,1,2.18-3.93l.76-.43a5.36,5.36,0,0,1,2.2,1.65,3.36,3.36,0,0,1,.7,1.67C127.52,270.28,127.5,273.27,127.5,276.44Zm14-.47a4.39,4.39,0,0,1-.11.46h-5.66c0-.43-.09-.84-.09-1.24,0-2.34.06-4.68,0-7a3.84,3.84,0,0,1,1.92-3.61c.31-.22.65-.41,1.12-.68.69.54,1.39,1.06,2.05,1.65a2.58,2.58,0,0,1,.8,1.89C141.54,270.28,141.54,273.12,141.53,276Z" transform="translate(12.55 -170.93)"/><path class="cls-7" d="M331.4,221.23h22.49v90.24H332.8L312.7,264.1v47.37H290.21V221.23H311.3l20.1,48.21Zm81.24,0,23.19,90.24H411.09L408.22,298H386.64l-3,13.49H359.51l23.19-90.24Zm-8.13,59.32-6.91-32.47-7.13,32.47ZM518.62,282l-12.09-60.72h-24L470.41,282l-7.59-60.72H437.23l19.12,90.24H484.6l10-53.83,10,53.83h28.25l19.12-90.24H527.61Zm87.85-60.72,23.19,90.24H604.92L602.05,298H580.47l-3,13.49H553.33l23.2-90.24Zm-8.13,59.32-6.91-32.47-7.13,32.47Zm104.27-59.32h-25l-11,38.09-11.8-38.09H629.66l24.88,61v29.29h24.59V282Zm53.13,0,23.19,90.24H754.19L751.32,298H729.74l-3,13.49H702.61l23.19-90.24Zm-8.13,59.32-6.91-32.47-7.13,32.47ZM854.55,258.2H836.84v-37H812.66v90.24h24.18v-35.7h17.71v35.7h24.17V221.23H854.55Zm82.92-37,23.2,90.24H935.93L933.06,298H911.48l-3,13.49H884.34l23.2-90.24Zm-8.12,59.32-6.91-32.47-7.13,32.47Zm87.24-2.06,16.61,33h-26.43l-14.3-32.05h-1.58v32.05h-24.6V221.23H1008q11.25,0,16,4.78t4.71,12.65V262q0,7.86-4.71,12.65A15.34,15.34,0,0,1,1016.59,278.49Zm-25.7-39.69v23.9h9.7a3.87,3.87,0,0,0,2.67-.78,3,3,0,0,0,.84-2.31V241.9a3,3,0,0,0-.84-2.32,3.87,3.87,0,0,0-2.67-.78ZM1095.53,226q4.71,4.78,4.71,12.65V294q0,7.88-4.71,12.65t-16,4.78h-20.81q-11.24,0-16-4.78T1038.11,294V238.66q0-7.86,4.71-12.65t16-4.78h20.81Q1090.82,221.23,1095.53,226Zm-19.89,31.07V241.9a3,3,0,0,0-.84-2.32,3.84,3.84,0,0,0-2.67-.78h-5.91a3.87,3.87,0,0,0-2.67.78,3,3,0,0,0-.84,2.32v48.91a3,3,0,0,0,.84,2.32,3.87,3.87,0,0,0,2.67.77h5.91a3.84,3.84,0,0,0,2.67-.77,3,3,0,0,0,.84-2.32V257.08Zm76.89,12.36-14.62-48.21h-26.85v90.24H1133V254.41l11.1,37.52H1161l11.24-37.81v57.35H1194V221.23h-26.85Zm100.21-48.21,23.19,90.24H1251.2L1248.32,298h-21.57l-3,13.49h-24.18l23.19-90.24Zm-8.13,59.32-6.91-32.47-7.12,32.47Zm37,30.92h24.59V221.23h-24.59Zm77-90.24v48.21l-20.1-48.21H1317.4v90.24h22.49V264.1l20.1,47.37h21.08V221.23Z" transform="translate(12.55 -170.93)"/></svg>